# xmcd
# 
# Track frame offsets:
#     150
#     19393
#     34522
#     52257
#     72886
#     86953
#     101842
#     120406
#     139151
#     150853
#     164627
# 
# Disc length: 2429
# 
# Revision: 1
# Processed by: cddbd v1.5.2PL0 Copyright (c) Steve Scherf et al.
# Submitted via: BonkEnc v1.0.8
# 
DISCID=95097b0b
DTITLE=Rascal Flatts - Melt
DYEAR=2002
DGENRE=Country
TTITLE0=These Days
TTITLE1=Too Good is True
TTITLE2=I Melt
TTITLE3=Mayberry
TTITLE4=Love You Out Loud
TTITLE5=Dry Country Girl
TTITLE6=Like I Am
TTITLE7=You
TTITLE8=Fallin' Upside Down
TTITLE9=Shine On
TTITLE10=My Worst Fear
EXTD=
EXTT0=
EXTT1=
EXTT2=
EXTT3=
EXTT4=
EXTT5=
EXTT6=
EXTT7=
EXTT8=
EXTT9=
EXTT10=
PLAYORDER=
